<?xml version="1.0" encoding="UTF-8" standalone="no"?><svg xmlns="http://www.w3.org/2000/svg" xmlns:xlink="http://www.w3.org/1999/xlink" contentStyleType="text/css" height="607px" preserveAspectRatio="none" style="width:1100px;height:607px;background:#FFFFFF;" version="1.1" viewBox="0 0 1100 607" width="1100px" zoomAndPan="magnify"><defs/><g><rect height="27.6094" style="stroke:#00000000;stroke-width:1.0;fill:none;" width="245" x="376" y="15"/><text fill="#000000" font-family="sans-serif" font-size="14" font-weight="bold" lengthAdjust="spacing" textLength="235" x="381" y="34.5332">Open source for Official statistics</text><rect fill="#F1F1F1" height="37.6094" rx="12.5" ry="12.5" style="stroke:#181818;stroke-width:1.5;" width="60" x="405" y="303.4492"/><text fill="#000000" font-family="sans-serif" font-size="14" lengthAdjust="spacing" textLength="40" x="415" y="327.9824">OSOS</text><rect fill="#F1F1F1" height="37.6094" rx="12.5" ry="12.5" style="stroke:#181818;stroke-width:1.5;" width="55" x="515" y="116.2188"/><text fill="#000000" font-family="sans-serif" font-size="14" font-weight="bold" lengthAdjust="spacing" textLength="35" x="525" y="140.752">What</text><rect fill="#F1F1F1" height="37.6094" rx="12.5" ry="12.5" style="stroke:#181818;stroke-width:1.5;" width="52" x="620" y="58.6094"/><text fill="#000000" font-family="sans-serif" font-size="14" lengthAdjust="spacing" textLength="32" x="630" y="83.1426">Apps</text><path d="M570,135.0234 L580,135.0234 C595,135.0234 595,77.4141 610,77.4141 L620,77.4141 " fill="none" style="stroke:#181818;stroke-width:1.0;"/><rect fill="#F1F1F1" height="37.6094" rx="12.5" ry="12.5" style="stroke:#181818;stroke-width:1.5;" width="74" x="620" y="116.2188"/><text fill="#000000" font-family="sans-serif" font-size="14" lengthAdjust="spacing" textLength="54" x="630" y="140.752">Methods</text><path d="M570,135.0234 L580,135.0234 C595,135.0234 595,135.0234 610,135.0234 L620,135.0234 " fill="none" style="stroke:#181818;stroke-width:1.0;"/><rect fill="#F1F1F1" height="37.6094" rx="12.5" ry="12.5" style="stroke:#181818;stroke-width:1.5;" width="121" x="620" y="173.8281"/><text fill="#000000" font-family="sans-serif" font-size="14" lengthAdjust="spacing" textLength="101" x="630" y="198.3613">Study/Research</text><path d="M570,135.0234 L580,135.0234 C595,135.0234 595,192.6328 610,192.6328 L620,192.6328 " fill="none" style="stroke:#181818;stroke-width:1.0;"/><path d="M465,322.2539 L475,322.2539 C490,322.2539 490,135.0234 505,135.0234 L515,135.0234 " fill="none" style="stroke:#181818;stroke-width:1.0;"/><rect fill="#F1F1F1" height="37.6094" rx="12.5" ry="12.5" style="stroke:#181818;stroke-width:1.5;" width="50" x="515" y="389.8633"/><text fill="#000000" font-family="sans-serif" font-size="14" font-weight="bold" lengthAdjust="spacing" textLength="30" x="525" y="414.3965">How</text><rect fill="#F1F1F1" height="37.6094" rx="12.5" ry="12.5" style="stroke:#181818;stroke-width:1.5;" width="66" x="615" y="289.0469"/><text fill="#000000" font-family="sans-serif" font-size="14" lengthAdjust="spacing" textLength="46" x="625" y="313.5801">Culture</text><rect fill="#F1F1F1" height="37.6094" rx="12.5" ry="12.5" style="stroke:#181818;stroke-width:1.5;" width="189" x="731" y="231.4375"/><text fill="#000000" font-family="sans-serif" font-size="14" lengthAdjust="spacing" textLength="169" x="741" y="255.9707">Community building MGMT</text><path d="M681,307.8516 L691,307.8516 C706,307.8516 706,250.2422 721,250.2422 L731,250.2422 " fill="none" style="stroke:#181818;stroke-width:1.0;"/><rect fill="#F1F1F1" height="37.6094" rx="12.5" ry="12.5" style="stroke:#181818;stroke-width:1.5;" width="243" x="731" y="289.0469"/><text fill="#000000" font-family="sans-serif" font-size="14" lengthAdjust="spacing" textLength="223" x="741" y="313.5801">Arhcitectural Engineering principles</text><rect fill="#F1F1F1" height="37.6094" rx="12.5" ry="12.5" style="stroke:#181818;stroke-width:1.5;" width="30" x="1024" y="260.2422"/><text fill="#000000" font-family="sans-serif" font-size="14" lengthAdjust="spacing" textLength="10" x="1034" y="284.7754">R</text><path d="M974,307.8516 L984,307.8516 C999,307.8516 999,279.0469 1014,279.0469 L1024,279.0469 " fill="none" style="stroke:#181818;stroke-width:1.0;"/><rect fill="#F1F1F1" height="37.6094" rx="12.5" ry="12.5" style="stroke:#181818;stroke-width:1.5;" width="64" x="1024" y="317.8516"/><text fill="#000000" font-family="sans-serif" font-size="14" lengthAdjust="spacing" textLength="44" x="1034" y="342.3848">Python</text><path d="M974,307.8516 L984,307.8516 C999,307.8516 999,336.6563 1014,336.6563 L1024,336.6563 " fill="none" style="stroke:#181818;stroke-width:1.0;"/><path d="M681,307.8516 L691,307.8516 C706,307.8516 706,307.8516 721,307.8516 L731,307.8516 " fill="none" style="stroke:#181818;stroke-width:1.0;"/><rect fill="#F1F1F1" height="37.6094" rx="12.5" ry="12.5" style="stroke:#181818;stroke-width:1.5;" width="71" x="731" y="346.6563"/><text fill="#000000" font-family="sans-serif" font-size="14" lengthAdjust="spacing" textLength="51" x="741" y="371.1895">Security</text><path d="M681,307.8516 L691,307.8516 C706,307.8516 706,365.4609 721,365.4609 L731,365.4609 " fill="none" style="stroke:#181818;stroke-width:1.0;"/><path d="M565,408.668 L575,408.668 C590,408.668 590,307.8516 605,307.8516 L615,307.8516 " fill="none" style="stroke:#181818;stroke-width:1.0;"/><rect fill="#F1F1F1" height="37.6094" rx="12.5" ry="12.5" style="stroke:#181818;stroke-width:1.5;" width="93" x="615" y="404.2656"/><text fill="#000000" font-family="sans-serif" font-size="14" lengthAdjust="spacing" textLength="73" x="625" y="428.7988">Capabilities</text><path d="M565,408.668 L575,408.668 C590,408.668 590,423.0703 605,423.0703 L615,423.0703 " fill="none" style="stroke:#181818;stroke-width:1.0;"/><rect fill="#F1F1F1" height="37.6094" rx="12.5" ry="12.5" style="stroke:#181818;stroke-width:1.5;" width="85" x="615" y="461.875"/><text fill="#000000" font-family="sans-serif" font-size="14" lengthAdjust="spacing" textLength="65" x="625" y="486.4082">Use cases</text><path d="M565,408.668 L575,408.668 C590,408.668 590,480.6797 605,480.6797 L615,480.6797 " fill="none" style="stroke:#181818;stroke-width:1.0;"/><rect fill="#F1F1F1" height="37.6094" rx="12.5" ry="12.5" style="stroke:#181818;stroke-width:1.5;" width="99" x="615" y="519.4844"/><text fill="#000000" font-family="sans-serif" font-size="14" lengthAdjust="spacing" textLength="79" x="625" y="544.0176">Sponsorship</text><rect fill="#F1F1F1" height="37.6094" rx="12.5" ry="12.5" style="stroke:#181818;stroke-width:1.5;" width="88" x="764" y="490.6797"/><text fill="#000000" font-family="sans-serif" font-size="14" lengthAdjust="spacing" textLength="68" x="774" y="515.2129">Resources</text><path d="M714,538.2891 L724,538.2891 C739,538.2891 739,509.4844 754,509.4844 L764,509.4844 " fill="none" style="stroke:#181818;stroke-width:1.0;"/><rect fill="#F1F1F1" height="37.6094" rx="12.5" ry="12.5" style="stroke:#181818;stroke-width:1.5;" width="72" x="764" y="548.2891"/><text fill="#000000" font-family="sans-serif" font-size="14" lengthAdjust="spacing" textLength="52" x="774" y="572.8223">Funding</text><path d="M714,538.2891 L724,538.2891 C739,538.2891 739,567.0938 754,567.0938 L764,567.0938 " fill="none" style="stroke:#181818;stroke-width:1.0;"/><path d="M565,408.668 L575,408.668 C590,408.668 590,538.2891 605,538.2891 L615,538.2891 " fill="none" style="stroke:#181818;stroke-width:1.0;"/><path d="M465,322.2539 L475,322.2539 C490,322.2539 490,408.668 505,408.668 L515,408.668 " fill="none" style="stroke:#181818;stroke-width:1.0;"/><rect fill="#F1F1F1" height="37.6094" rx="12.5" ry="12.5" style="stroke:#181818;stroke-width:1.5;" width="49" x="306" y="303.4492"/><text fill="#000000" font-family="sans-serif" font-size="14" font-weight="bold" lengthAdjust="spacing" textLength="29" x="316" y="327.9824">Why</text><rect fill="#F1F1F1" height="37.6094" rx="12.5" ry="12.5" style="stroke:#181818;stroke-width:1.5;" width="108" x="148" y="217.0352"/><text fill="#000000" font-family="sans-serif" font-size="14" lengthAdjust="spacing" textLength="88" x="158" y="241.5684">Transparency</text><path d="M306,322.2539 L296,322.2539 C281,322.2539 281,235.8398 266,235.8398 L256,235.8398 " fill="none" style="stroke:#181818;stroke-width:1.0;"/><rect fill="#F1F1F1" height="37.6094" rx="12.5" ry="12.5" style="stroke:#181818;stroke-width:1.5;" width="92" x="164" y="303.4492"/><text fill="#000000" font-family="sans-serif" font-size="14" lengthAdjust="spacing" textLength="72" x="174" y="327.9824">User needs</text><rect fill="#F1F1F1" height="37.6094" rx="12.5" ry="12.5" style="stroke:#181818;stroke-width:1.5;" width="104" x="10" y="274.6445"/><text fill="#000000" font-family="sans-serif" font-size="14" lengthAdjust="spacing" textLength="84" x="20" y="299.1777">Reproducible</text><path d="M164,322.2539 L154,322.2539 C139,322.2539 139,293.4492 124,293.4492 L114,293.4492 " fill="none" style="stroke:#181818;stroke-width:1.0;"/><rect fill="#F1F1F1" height="37.6094" rx="12.5" ry="12.5" style="stroke:#181818;stroke-width:1.5;" width="97" x="17" y="332.2539"/><text fill="#000000" font-family="sans-serif" font-size="14" lengthAdjust="spacing" textLength="77" x="27" y="356.7871">Comparable</text><path d="M164,322.2539 L154,322.2539 C139,322.2539 139,351.0586 124,351.0586 L114,351.0586 " fill="none" style="stroke:#181818;stroke-width:1.0;"/><path d="M306,322.2539 L296,322.2539 C281,322.2539 281,322.2539 266,322.2539 L256,322.2539 " fill="none" style="stroke:#181818;stroke-width:1.0;"/><rect fill="#F1F1F1" height="37.6094" rx="12.5" ry="12.5" style="stroke:#181818;stroke-width:1.5;" width="69" x="187" y="389.8633"/><text fill="#000000" font-family="sans-serif" font-size="14" lengthAdjust="spacing" textLength="49" x="197" y="414.3965">Sharing</text><rect fill="#F1F1F1" height="37.6094" rx="12.5" ry="12.5" style="stroke:#181818;stroke-width:1.5;" width="82" x="55" y="389.8633"/><text fill="#000000" font-family="sans-serif" font-size="14" lengthAdjust="spacing" textLength="62" x="65" y="414.3965">Cut Costs</text><path d="M187,408.668 L177,408.668 C162,408.668 162,408.668 147,408.668 L137,408.668 " fill="none" style="stroke:#181818;stroke-width:1.0;"/><path d="M306,322.2539 L296,322.2539 C281,322.2539 281,408.668 266,408.668 L256,408.668 " fill="none" style="stroke:#181818;stroke-width:1.0;"/><path d="M405,322.2539 L395,322.2539 C380,322.2539 380,322.2539 365,322.2539 L355,322.2539 " fill="none" style="stroke:#181818;stroke-width:1.0;"/><!--MD5=[2000ccdc3ab6940a163e54c6da6865c1]
@startmindmap OSOS

title Open source for Official statistics

+ OSOS
- - <b>Why</b>
- - - Transparency
- - - User needs
- - - - Reproducible
- - - - Comparable
- - - Sharing
- - - - Cut Costs
'- - - - Increase quality
'- - - - Competence
++ <b>What</b>
+++ Apps
+++ Methods
+++ Study/Research
++ <b>How</b>
+++ Culture
++++ Community building MGMT
++++ Arhcitectural Engineering principles
+++++ R
+++++ Python
++++ Security
+++ Capabilities
+++ Use cases
+++ Sponsorship
++++ Resources
++++ Funding

@endmindmap

@startmindmap OSOS

title Open source for Official statistics

+ OSOS
- - <b>Why</b>
- - - Transparency
- - - User needs
- - - - Reproducible
- - - - Comparable
- - - Sharing
- - - - Cut Costs
++ <b>What</b>
+++ Apps
+++ Methods
+++ Study/Research
++ <b>How</b>
+++ Culture
++++ Community building MGMT
++++ Arhcitectural Engineering principles
+++++ R
+++++ Python
++++ Security
+++ Capabilities
+++ Use cases
+++ Sponsorship
++++ Resources
++++ Funding

@endmindmap

PlantUML version 1.2022.5(Sat Apr 30 12:55:52 CEST 2022)
(GPL source distribution)
Java Runtime: Java(TM) SE Runtime Environment
JVM: Java HotSpot(TM) Client VM
Default Encoding: Cp1252
Language: no
Country: NO
--></g></svg>